<svg width="644" height="180" viewBox="0 0 644 180" fill="none" xmlns="http://www.w3.org/2000/svg">
<g clip-path="url(#clip0)">
<path d="M408.666 42.202C408.666 34.552 406.524 30.54 398.364 30.54H392.55V54H398.364C399.894 54 401.458 53.932 402.92 53.456C407.816 51.892 408.666 46.724 408.666 42.202ZM404.28 42.202C404.28 44.752 404.178 48.934 401.696 50.464C400.71 51.042 399.486 51.178 398.364 51.178H396.528V33.362H398.364C403.94 33.362 404.28 37.714 404.28 42.202ZM424.332 54V42.474C424.332 38.734 421.884 37.442 418.45 37.442C415.084 37.442 412.296 38.87 412.296 42.576H415.968C415.968 40.978 416.818 40.094 418.45 40.094C420.32 40.094 420.728 41.454 420.728 43.052V44.65C417.056 44.752 411.684 45.262 411.684 50.124C411.684 52.878 413.86 54.374 416.444 54.374C418.212 54.374 419.844 53.796 420.66 52.13H420.728V54H424.332ZM420.728 46.86C420.728 48.934 419.878 51.722 417.362 51.722C416.104 51.722 415.356 51.076 415.356 49.784C415.356 47.336 418.926 46.86 420.728 46.86ZM437.879 41.386V37.442C435.159 37.442 433.901 38.564 432.643 40.808H432.575V37.816H428.801V54H432.575V46.894C432.575 43.086 434.003 41.386 437.879 41.386ZM462.005 54V42.78C462.005 39.992 460.713 37.442 457.619 37.442C455.579 37.442 453.777 38.802 453.063 40.672H452.995C452.553 38.598 451.023 37.442 448.915 37.442C446.943 37.442 445.447 38.496 444.665 40.298H444.597V37.816H440.823V54H444.597V46.996C444.597 45.126 445.413 40.978 447.861 40.978C448.235 40.978 448.677 41.012 448.949 41.284C449.595 41.896 449.527 43.97 449.527 44.752V54H453.301V46.996C453.301 45.126 454.117 40.978 456.565 40.978C456.939 40.978 457.381 41.012 457.653 41.284C458.299 41.896 458.231 43.97 458.231 44.752V54H462.005ZM475.971 49.512C475.971 44.888 468.865 43.8 468.865 41.658C468.865 40.57 470.531 40.162 471.381 40.162C472.673 40.162 473.863 40.672 474.985 41.25V38.054C473.761 37.714 472.571 37.442 471.313 37.442C468.287 37.442 465.499 38.836 465.499 42.202C465.499 46.486 472.469 48.084 472.469 49.988C472.469 51.28 470.633 51.45 469.681 51.45C468.253 51.45 466.859 51.042 465.567 50.464V53.728C466.961 54.17 468.389 54.374 469.851 54.374C473.013 54.374 475.971 53.116 475.971 49.512ZM489.269 40.434V37.816H484.475V31.696L480.701 33.974V37.816H477.539V40.434H480.701V49.92C480.701 53.286 482.367 54.374 485.665 54.374C486.685 54.374 487.739 54.272 488.759 54.102V51.45C488.181 51.586 487.603 51.722 487.025 51.722C484.679 51.722 484.475 49.988 484.475 48.084V40.434H489.269ZM503.621 54V42.474C503.621 38.734 501.173 37.442 497.739 37.442C494.373 37.442 491.585 38.87 491.585 42.576H495.257C495.257 40.978 496.107 40.094 497.739 40.094C499.609 40.094 500.017 41.454 500.017 43.052V44.65C496.345 44.752 490.973 45.262 490.973 50.124C490.973 52.878 493.149 54.374 495.733 54.374C497.501 54.374 499.133 53.796 499.949 52.13H500.017V54H503.621ZM500.017 46.86C500.017 48.934 499.167 51.722 496.651 51.722C495.393 51.722 494.645 51.076 494.645 49.784C494.645 47.336 498.215 46.86 500.017 46.86ZM520.603 54V30.54H516.829V39.754H516.761C515.911 38.258 514.449 37.442 512.715 37.442C508.227 37.442 507.173 42.338 507.173 45.908C507.173 49.648 507.989 54.374 512.715 54.374C514.211 54.374 516.183 53.184 516.761 51.756H516.829V54H520.603ZM516.829 45.908C516.829 47.676 516.387 51.45 513.973 51.45C511.355 51.45 511.185 47.778 511.185 45.908C511.185 43.936 511.253 40.366 513.973 40.366C516.591 40.366 516.829 44.038 516.829 45.908ZM535.223 40.434V37.816H530.429V31.696L526.655 33.974V37.816H523.493V40.434H526.655V49.92C526.655 53.286 528.321 54.374 531.619 54.374C532.639 54.374 533.693 54.272 534.713 54.102V51.45C534.135 51.586 533.557 51.722 532.979 51.722C530.633 51.722 530.429 49.988 530.429 48.084V40.434H535.223ZM406.83 90L405.47 83.574C404.892 80.786 404.518 79.222 401.424 78.406V78.338C404.586 77.556 406.184 75.856 406.184 72.456C406.184 68.002 402.546 66.54 398.704 66.54H392.89V90H395.542V79.562H397.99C401.696 79.562 402.342 81.364 403.022 84.594L404.178 90H406.83ZM403.532 72.728C403.532 76.638 400.2 77.352 397.004 77.352H395.542V68.75H397.514C400.54 68.75 403.532 68.852 403.532 72.728ZM422.576 90V78.44C422.576 75.89 421.284 73.442 418.428 73.442C415.606 73.442 414.178 75.074 413.362 77.556H413.294V66.54H410.982V90H413.294V83.336C413.294 80.786 414.654 75.754 417.884 75.754C420.536 75.754 420.264 79.188 420.264 81.024V90H422.576ZM438.862 80.378V79.596C438.862 76.026 436.992 73.442 433.218 73.442C428.458 73.442 426.894 77.148 426.894 81.364C426.894 86.6 429.172 90.374 434.782 90.374C436.04 90.374 437.298 90.272 438.488 89.898V87.994C437.4 88.266 436.414 88.436 435.292 88.436C431.314 88.436 429.546 84.866 429.546 81.33V80.378H438.862ZM436.21 78.44H429.716C430.056 76.672 431.212 75.38 433.116 75.38C434.884 75.38 436.21 76.672 436.21 78.44ZM445.979 69.6V66.54H442.919V69.6H445.979ZM445.605 90V73.816H443.293V90H445.605ZM462.884 90V78.44C462.884 75.89 461.592 73.442 458.736 73.442C455.914 73.442 454.486 75.074 453.67 77.556H453.602V73.816H451.29V90H453.602V83.336C453.602 80.786 454.962 75.754 458.192 75.754C460.844 75.754 460.572 79.188 460.572 81.024V90H462.884ZM498.577 90V66.54H494.633L487.969 86.498H487.901L481.237 66.54H477.259V90H479.639V69.362H479.707L486.609 90H489.227L496.129 69.362H496.197V90H498.577ZM514.486 90V78.644C514.486 75.04 512.718 73.442 509.046 73.442C506.156 73.442 503.3 74.7 503.232 77.964H505.816C506.054 76.026 507.21 75.38 509.114 75.38C512.344 75.38 512.174 77.964 512.174 80.378V80.718C511.63 80.82 511.12 80.82 510.576 80.82C507.584 80.82 502.858 82.146 502.858 85.852C502.858 88.606 504.422 90.374 507.21 90.374C509.012 90.374 511.29 89.558 512.174 87.858H512.242V90H514.486ZM512.174 82.656C512.174 84.016 512.106 84.696 511.562 85.92C510.882 87.382 509.42 88.436 507.788 88.436C506.428 88.436 505.51 87.45 505.51 86.09C505.51 83.506 508.74 82.656 510.814 82.656H512.174ZM522.778 69.6V66.54H519.718V69.6H522.778ZM522.404 90V73.816H520.092V90H522.404ZM539.683 90V78.44C539.683 75.89 538.391 73.442 535.535 73.442C532.713 73.442 531.285 75.074 530.469 77.556H530.401V73.816H528.089V90H530.401V83.336C530.401 80.786 531.761 75.754 534.991 75.754C537.643 75.754 537.371 79.188 537.371 81.024V90H539.683ZM569.698 90V66.54H567.182V86.362H567.114L557.458 66.54H554.058V90H556.574V70.246H556.642L566.298 90H569.698ZM586.184 80.378V79.596C586.184 76.026 584.314 73.442 580.54 73.442C575.78 73.442 574.216 77.148 574.216 81.364C574.216 86.6 576.494 90.374 582.104 90.374C583.362 90.374 584.62 90.272 585.81 89.898V87.994C584.722 88.266 583.736 88.436 582.614 88.436C578.636 88.436 576.868 84.866 576.868 81.33V80.378H586.184ZM583.532 78.44H577.038C577.378 76.672 578.534 75.38 580.438 75.38C582.206 75.38 583.532 76.672 583.532 78.44ZM601.393 78.746C601.393 75.244 599.285 73.442 595.851 73.442C590.887 73.442 589.255 77.114 589.255 81.534C589.255 86.94 592.009 90.374 597.585 90.374C598.775 90.374 599.829 90.272 600.951 89.932V88.096C600.101 88.368 599.217 88.436 598.333 88.436C593.743 88.436 591.907 85.206 591.907 81.024C591.907 78.61 592.791 75.38 595.749 75.38C597.823 75.38 598.639 76.876 598.639 78.746H601.393ZM616.414 90L609.886 80.99L615.7 73.816H612.878L607.268 80.65H607.2V66.54H604.888V90H607.2V81.364H607.268L613.558 90H616.414ZM629.701 90V78.644C629.701 75.04 627.933 73.442 624.261 73.442C621.371 73.442 618.515 74.7 618.447 77.964H621.031C621.269 76.026 622.425 75.38 624.329 75.38C627.559 75.38 627.389 77.964 627.389 80.378V80.718C626.845 80.82 626.335 80.82 625.791 80.82C622.799 80.82 618.073 82.146 618.073 85.852C618.073 88.606 619.637 90.374 622.425 90.374C624.227 90.374 626.505 89.558 627.389 87.858H627.457V90H629.701ZM627.389 82.656C627.389 84.016 627.321 84.696 626.777 85.92C626.097 87.382 624.635 88.436 623.003 88.436C621.643 88.436 620.725 87.45 620.725 86.09C620.725 83.506 623.955 82.656 626.029 82.656H627.389ZM642.889 75.924V73.442C640.305 73.442 638.503 74.598 637.483 76.944H637.415V73.816H635.103V90H637.415V83.302C637.415 79.766 638.707 75.924 642.889 75.924Z" fill="black"/>
<path fill-rule="evenodd" clip-rule="evenodd" d="M357.99 180L177.872 179.998C198.21 122.045 198.261 58.0287 177.868 0L360 0.00211668V180" fill="#003366"/>
<path fill-rule="evenodd" clip-rule="evenodd" d="M337.563 33.2232C339.001 31.6191 338.864 30.3189 337.259 30.3189H329.376C327.773 30.3189 326.968 30.1452 324.386 32.7251L302.371 56.5597L302.311 33.2232C302.311 31.6191 301.01 30.3189 299.404 30.3189H294.053C292.448 30.3189 291.145 31.6191 291.145 33.2232L291.143 86.2382C291.143 87.8403 292.444 89.1405 294.049 89.1405H299.425C301.03 89.1405 302.331 87.8403 302.331 86.2382L302.336 72.3757L312.116 61.8145L327.216 86.2382C328.199 87.8403 329.578 89.1405 331.184 89.1405H339.249C340.856 89.1405 341.361 87.8403 340.378 86.2382L319.55 53.5168L337.563 33.2232Z" fill="white"/>
<path fill-rule="evenodd" clip-rule="evenodd" d="M208.431 86.2376C208.431 87.8418 209.732 89.142 211.335 89.142H217.216C218.823 89.142 220.124 87.8418 220.124 86.2376L220.149 33.2247C220.149 31.6206 218.848 30.3203 217.243 30.3203H211.366C209.759 30.3203 208.46 31.6206 208.46 33.2247L208.431 86.2376Z" fill="white"/>
<path fill-rule="evenodd" clip-rule="evenodd" d="M267.332 33.2247C267.332 31.6206 268.633 30.3203 270.238 30.3203H276.048C277.656 30.3203 278.957 31.6206 278.957 33.2247L278.949 86.2397C278.949 87.8418 277.647 89.142 276.042 89.142H270.271C268.666 89.142 267.365 87.8418 267.365 86.2397L267.344 64.402H243.957L243.961 86.2397C243.961 87.8418 242.662 89.142 241.055 89.142H235.246C233.641 89.142 232.34 87.8418 232.34 86.2397L232.342 33.2247C232.342 31.6206 233.643 30.3203 235.248 30.3203H241.075C242.678 30.3203 243.982 31.6206 243.982 33.2247L243.957 54.5518H267.344L267.332 33.2247Z" fill="white"/>
<path fill-rule="evenodd" clip-rule="evenodd" d="M180.433 0L0 0.00211668V180L180.431 179.998C200.802 122.045 200.857 58.0287 180.433 0Z" fill="#CCD7E6"/>
<path d="M42.1133 58.0781H113.097V62.2802H42.1133V58.0781Z" fill="#003366"/>
<path d="M42.1133 67.4219H113.097V71.624H42.1133V67.4219Z" fill="#003366"/>
<path d="M42.1133 76.7656H113.097V80.9677H42.1133V76.7656Z" fill="#003366"/>
<path d="M42.1133 86.1133H113.097V90.3154H42.1133V86.1133Z" fill="#003366"/>
<path d="M42.1133 95.457H113.097V99.6591H42.1133V95.457Z" fill="#003366"/>
<path d="M42.1133 104.801H113.097V109.003H42.1133V104.801Z" fill="#003366"/>
<path d="M42.1133 114.145H113.097V118.347H42.1133V114.145Z" fill="#003366"/>
<path d="M66.1514 116.467L101.675 55.0664L105.315 57.1361L69.7916 118.537L66.1514 116.467Z" fill="#003366"/>
<path d="M74.3096 121.17L109.77 59.707L113.41 61.8394L77.887 123.24L74.3096 121.17Z" fill="#003366"/>
<path d="M82.4062 125.811L117.867 64.4102L121.507 66.4798L85.9837 127.881L82.4062 125.811Z" fill="#003366"/>
<path d="M90.5029 130.518L125.964 69.0547L129.604 71.1871L94.0804 132.588L90.5029 130.518Z" fill="#003366"/>
<path d="M98.5996 135.159L134.06 73.7578L137.7 75.8275L102.24 137.228L98.5996 135.159Z" fill="#003366"/>
<path d="M106.695 139.862L142.156 78.3984L145.796 80.5308L110.336 141.932L106.695 139.862Z" fill="#003366"/>
<path d="M114.792 144.502L150.253 83.1016L153.893 85.1712L118.432 146.572L114.792 144.502Z" fill="#003366"/>
<path d="M100.545 26.7188L136.005 88.1194L132.365 90.1891L96.9043 28.7884L100.545 26.7188Z" fill="#003366"/>
<path d="M92.4488 31.3594L127.909 92.8228L124.269 94.8925L88.8086 33.4918L92.4488 31.3594Z" fill="#003366"/>
<path d="M84.2894 36.0625L119.813 97.4632L116.173 99.5329L80.7119 38.1322L84.2894 36.0625Z" fill="#003366"/>
<path d="M76.1927 40.7031L111.716 102.167L108.076 104.236L72.6152 42.8355L76.1927 40.7031Z" fill="#003366"/>
<path d="M68.097 45.4102L103.62 106.811L99.9802 108.881L64.5195 47.4799L68.097 45.4102Z" fill="#003366"/>
<path d="M60.0006 50.0508L95.524 111.514L91.8838 113.584L56.3604 52.1832L60.0006 50.0508Z" fill="#003366"/>
<path d="M51.9039 54.7539L87.4273 116.155L83.7871 118.287L48.2637 56.8236L51.9039 54.7539Z" fill="#003366"/>
</g>
<defs>
<clipPath id="clip0">
<rect width="644" height="180" fill="white"/>
</clipPath>
</defs>
</svg>
