<?xml version="1.0" encoding="UTF-8"?>
<svg width="132px" height="66px" viewBox="0 0 132 66" version="1.1" xmlns="http://www.w3.org/2000/svg" xmlns:xlink="http://www.w3.org/1999/xlink">
    <title>EEC3A482-924A-4146-9179-6465574C1819</title>
    <g id="IHK" stroke="none" stroke-width="1" fill="none" fill-rule="evenodd">
        <g id="01_dropdown_die-IHK:-Schrift-blau" transform="translate(-360.000000, -34.000000)" fill-rule="nonzero">
            <g id="IHK_Logo" transform="translate(360.000000, 34.000000)">
                <path d="M66.3712953,0 L0,0 L0,66 L66.3712953,66 C73.8668469,44.7528281 73.8856171,21.2782805 66.3712953,0" id="Path" fill="#CCD7E6"></path>
                <path d="M132,66 L66,66 C73.4536199,44.7528281 73.4722851,21.2782805 66,0 L132,0 L132,66" id="Path" fill="#003882"></path>
                <path d="M125.800944,12.0889574 C126.318637,11.492032 126.27048,11.0008121 125.69259,11.0008121 L122.839258,11.0008121 C122.261369,11.0008121 121.966404,10.9386324 121.033353,11.9024182 L113.069308,20.8189912 L113.045229,12.0889574 C113.045229,11.492032 112.575694,11.0008121 111.991784,11.0008121 L110.053445,11.0008121 C109.475555,11.0008121 109,11.485814 109,12.0889574 L109,31.9118548 C109,32.5087801 109.469536,33 110.053445,33 L111.997804,33 C112.575694,33 113.051249,32.5149981 113.051249,31.9118548 L113.051249,26.7260654 L116.590824,22.7776527 L122.056699,31.9118548 C122.411861,32.5087801 122.911495,33 123.489385,33 L126.408932,33 C126.992842,33 127.173432,32.5149981 126.818271,31.9118548 L119.281624,19.6748842 L125.800944,12.0889574" id="Path" fill="#FFFFFF"></path>
                <path d="M77,31.9118146 C77,32.5149802 77.4425532,33 77.9929078,33 L80.0014184,33 C80.5460993,33 80.9943262,32.5149802 80.9943262,31.9118146 L81,12.0881854 C81,11.491238 80.5574468,11 80.0070922,11 L78.0042553,11 C77.4595745,11 77.0113475,11.4850198 77.0113475,12.0881854 L77,31.9118146" id="Path" fill="#FFFFFF"></path>
                <path d="M98.7606136,12.0881854 C98.7606136,11.491238 99.2336782,11 99.8219765,11 L101.938637,11 C102.52087,11 103,11.4850198 103,12.0881854 L103,31.9118146 C103,32.508762 102.526935,33 101.938637,33 L99.8341063,33 C99.2458081,33 98.7727435,32.5149802 98.7727435,31.9118146 L98.7666786,23.7473149 L90.2393864,23.7473149 L90.2393864,31.9118146 C90.2393864,32.508762 89.7663218,33 89.1780235,33 L87.0613628,33 C86.4791295,33 86,32.5149802 86,31.9118146 L86,12.0881854 C86,11.491238 86.4730646,11 87.0613628,11 L89.1840885,11 C89.7663218,11 90.2454513,11.4850198 90.2454513,12.0881854 L90.2393864,20.0661391 L98.7666786,20.0661391 L98.7606136,12.0881854" id="Path" fill="#FFFFFF"></path>
            </g>
        </g>
    </g>
</svg>