<?xml version="1.0" encoding="UTF-8" standalone="no"?>
<!-- Created with Inkscape (http://www.inkscape.org/) -->

<svg
   xmlns:dc="http://purl.org/dc/elements/1.1/"
   xmlns:cc="http://creativecommons.org/ns#"
   xmlns:rdf="http://www.w3.org/1999/02/22-rdf-syntax-ns#"
   xmlns:svg="http://www.w3.org/2000/svg"
   xmlns="http://www.w3.org/2000/svg"
   xmlns:sodipodi="http://sodipodi.sourceforge.net/DTD/sodipodi-0.dtd"
   xmlns:inkscape="http://www.inkscape.org/namespaces/inkscape"
   version="1.1"
   id="svg815"
   xml:space="preserve"
   width="16179.467"
   height="1789.6533"
   viewBox="0 0 16179.467 1789.6533"
   sodipodi:docname="lh_lufthansa_systems_1lin_blue_cmyk.svg"
   inkscape:version="0.92.4 (5da689c313, 2019-01-14)"><metadata
     id="metadata821"><rdf:RDF><cc:Work
         rdf:about=""><dc:format>image/svg+xml</dc:format><dc:type
           rdf:resource="http://purl.org/dc/dcmitype/StillImage" /><dc:title></dc:title></cc:Work></rdf:RDF></metadata><defs
     id="defs819" /><sodipodi:namedview
     pagecolor="#ffffff"
     bordercolor="#666666"
     borderopacity="1"
     objecttolerance="10"
     gridtolerance="10"
     guidetolerance="10"
     inkscape:pageopacity="0"
     inkscape:pageshadow="2"
     inkscape:window-width="1920"
     inkscape:window-height="996"
     id="namedview817"
     showgrid="false"
     inkscape:zoom="0.082079343"
     inkscape:cx="8089.7334"
     inkscape:cy="894.82666"
     inkscape:window-x="-8"
     inkscape:window-y="-8"
     inkscape:window-maximized="1"
     inkscape:current-layer="g823" /><g
     id="g823"
     inkscape:groupmode="layer"
     inkscape:label="lh_lufthansa_systems_1lin_blue_cmyk"
     transform="matrix(1.3333333,0,0,-1.3333333,0,1789.6533)"><path
       inkscape:connector-curvature="0"
       id="path835"
       style="fill:#00224a;fill-opacity:1;fill-rule:nonzero;stroke:none"
       d="m 11530.739,428.5002 h 173.608 c 4.662,-43.111 34.954,-64.083 102.534,-64.083 68.745,0 96.709,16.313 96.709,48.936 0,30.295 -23.305,44.277 -83.894,52.432 l -61.751,8.157 c -129.334,17.477 -203.904,67.58 -203.904,184.095 0,113.019 73.404,194.58 256.336,194.58 161.955,0 247.011,-64.082 255.169,-191.085 h -171.28 c -5.824,33.79 -24.467,54.762 -83.889,54.762 -58.26,0 -80.396,-19.808 -80.396,-45.44 0,-25.634 13.982,-39.616 64.084,-46.607 l 61.752,-8.156 c 149.14,-19.807 223.71,-66.414 223.71,-188.757 0,-123.506 -81.561,-196.91 -272.646,-196.91 -201.572,0 -272.646,80.395 -276.142,198.076 m -419.437,160.793 v -341.392 h -175.94 v 335.566 c 0,78.065 -29.13,113.019 -100.204,113.019 -71.075,0 -100.201,-34.954 -100.201,-113.019 v -335.566 h -175.941 v 587.239 h 165.454 v -67.579 c 30.292,43.111 71.075,85.056 157.294,85.056 106.03,0 159.626,-33.789 188.756,-100.202 25.634,51.266 69.908,100.202 189.922,100.202 154.965,0 226.039,-65.248 226.039,-258.664 v -346.052 h -175.936 v 341.392 c 0,74.57 -26.801,107.193 -99.041,107.193 -72.239,0 -100.202,-32.623 -100.202,-107.193 m -784.136,25.632 c -6.99,60.589 -32.625,101.369 -118.847,101.369 -75.736,0 -109.524,-31.459 -121.177,-101.369 z m 177.103,-121.175 h -419.457 c 8.157,-88.552 45.441,-122.343 132.826,-122.343 66.416,0 93.214,18.644 103.701,57.093 h 173.607 c -10.486,-114.186 -102.533,-198.076 -277.308,-198.076 -221.378,0 -307.599,124.673 -307.599,311.098 0,157.295 71.074,311.095 298.28,311.095 213.224,0 298.279,-123.506 298.279,-309.93 0,-13.983 0,-32.625 -2.329,-48.937 m -753.845,198.076 v -228.37 c 0,-62.919 32.622,-79.23 83.889,-79.23 20.973,0 50.103,3.496 50.103,3.496 v -140.987 c 0,0 -40.782,-9.32 -83.894,-9.32 -140.982,0 -226.039,64.084 -226.039,206.233 v 248.178 h -88.552 v 143.314 h 88.552 v 171.279 h 175.941 v -171.279 h 133.992 v -143.314 z m -831.91,-263.326 h 173.609 c 4.661,-43.111 34.954,-64.083 102.533,-64.083 68.745,0 96.709,16.313 96.709,48.936 0,30.295 -23.305,44.277 -83.894,52.432 l -61.751,8.157 c -129.334,17.477 -203.904,67.58 -203.904,184.095 0,113.019 73.404,194.58 256.335,194.58 161.956,0 247.013,-64.082 255.169,-191.085 h -171.278 c -5.825,33.79 -24.468,54.762 -83.891,54.762 -58.259,0 -80.394,-19.808 -80.394,-45.44 0,-25.634 13.981,-39.616 64.084,-46.607 l 61.751,-8.156 c 149.14,-19.807 223.71,-66.414 223.71,-188.757 0,-123.506 -81.561,-196.91 -272.646,-196.91 -201.571,0 -272.646,80.395 -276.142,198.076 m 15.154,406.64 -336.732,-792.306 h -186.425 l 104.865,230.701 -235.363,561.605 h 194.582 l 128.167,-353.042 136.323,353.042 z m -1024.17,85.056 c -104.864,0 -135.157,-37.284 -135.157,-81.56 0,-43.11 25.632,-62.918 101.368,-72.239 l 115.351,-13.982 c 171.278,-20.973 264.491,-96.709 264.491,-258.665 0,-173.608 -121.177,-263.326 -349.548,-263.326 -257.5,0 -346.052,110.69 -358.868,283.133 h 192.25 c 6.991,-66.413 31.46,-118.845 166.618,-118.845 113.021,0 154.965,31.459 154.965,87.386 0,46.606 -26.798,73.405 -129.332,86.222 l -115.35,13.982 c -150.305,18.642 -236.527,88.552 -236.527,243.516 0,146.811 102.534,255.171 329.739,255.171 210.894,0 314.593,-83.892 330.905,-257.5 h -192.251 c -9.32,57.093 -37.285,96.707 -138.654,96.707 M 919.973,777.3382 c -4.65,0 -8.563,-0.122 -10.764,-0.366 -2.57,-4.649 -6.362,-10.887 -11.99,-19.574 87.584,0 167.098,-7.216 255.047,-22.995 l -24.831,-23.976 c -79.389,14.067 -145.322,19.692 -229.358,19.692 -12.232,0 -14.801,0 -17.735,-0.121 -2.938,-4.402 -9.544,-12.965 -16.148,-20.918 7.461,0.489 21.897,0.734 41.833,0.734 69.114,0 133.7,-5.136 203.794,-16.392 l -24.834,-24.097 c -53.333,8.318 -118.532,13.089 -177.004,13.089 -20.794,0 -44.401,-0.734 -65.563,-1.956 -4.771,-5.505 -17.247,-18.962 -21.039,-23.12 28.01,2.935 58.837,4.282 95.534,4.282 52.233,0 102.142,-3.427 149.358,-10.399 l -24.834,-23.852 c -33.638,4.157 -74.495,6.603 -110.578,6.603 -93.089,0 -166.484,-20.181 -242.326,-66.542 72.294,-77.554 190.705,-126.606 305.444,-126.606 h 10.764 l -40.12,-38.777 c -165.507,31.069 -339.697,103.852 -486.851,203.549 -141.53,95.534 -191.07,123.789 -301.529,172.596 l -0.733,28.381 74.74,-32.05 25.443,20.185 244.035,-111.805 -15.902,-12.72 -125.259,54.431 -12.355,-9.661 65.078,-36.331 c 54.924,-30.583 96.757,-44.282 135.413,-44.282 84.525,0 160.367,59.939 209.295,165.259 36.82,4.774 76.086,6.974 123.302,6.974 96.88,0 190.947,-9.296 297.492,-29.235 l -25.933,-25.076 c -66.298,13.823 -178.96,25.076 -250.886,25.076 M 682.787,80.7022 c -317.475,0 -575.001,257.527 -575.001,574.999 0,317.474 257.526,575.001 575.001,575.001 317.472,0 574.999,-257.527 574.999,-575.001 0,-317.472 -257.527,-574.999 -574.999,-574.999 m 0,1186.699 c -338.272,0 -611.703,-273.429 -611.703,-611.7 0,-338.272 273.431,-611.704 611.703,-611.704 338.271,0 611.701,273.432 611.701,611.704 0,338.271 -273.43,611.7 -611.701,611.7 m 1616.055,-855.218 h 350.709 v -164.284 h -539.46 v 815.604 h 188.751 z m 774.825,422.95 h 175.932 v -587.236 h -165.446 v 67.584 c -24.471,-45.446 -74.566,-85.057 -166.619,-85.057 -150.297,0 -228.363,67.578 -228.363,260.991 v 343.718 h 175.936 v -335.558 c 0,-78.069 33.794,-113.019 104.864,-113.019 64.083,0 103.696,34.95 103.696,113.019 z m 311.095,22.135 c 0,142.145 89.722,217.886 230.702,217.886 45.446,0 74.573,-6.991 74.573,-6.991 v -142.146 c 0,0 -24.468,2.324 -45.447,2.324 -54.763,0 -83.895,-18.644 -83.895,-69.908 v -23.301 h 129.342 v -143.313 h -129.342 v -443.922 h -175.933 v 443.922 h -88.548 v 143.313 h 88.548 v 22.136 m 615.186,-22.136 h 133.995 v -143.313 h -133.995 v -228.369 c 0,-62.92 32.629,-79.231 83.893,-79.231 20.972,0 50.102,3.493 50.102,3.493 v -140.981 c 0,0 -40.78,-9.316 -83.89,-9.316 -140.98,0 -226.038,64.08 -226.038,206.229 v 248.175 h -88.55 v 143.313 h 88.55 v 171.276 h 175.933 z m 523.522,17.477 c 149.141,0 227.206,-67.576 227.206,-260.991 v -343.719 h -175.945 v 335.565 c 0,78.059 -33.787,113.013 -107.189,113.013 -66.416,0 -106.028,-34.954 -106.028,-113.013 v -335.565 h -175.936 v 814.436 h 177.099 v -284.293 c 30.298,43.112 78.069,74.567 160.793,74.567 m 675.784,-376.338 c 0,-64.086 -60.593,-111.861 -153.799,-111.861 -45.446,0 -72.242,20.976 -72.242,60.593 0,30.292 18.645,55.925 78.066,64.076 l 101.369,13.987 c 17.476,2.333 36.118,5.824 46.606,9.32 z m -97.87,376.337 c -173.609,0 -257.501,-66.416 -264.49,-191.086 h 171.275 c 2.33,32.629 20.975,57.097 93.215,57.097 64.082,0 94.374,-20.978 94.374,-52.43 0,-27.969 -17.482,-38.454 -60.587,-43.112 l -111.851,-11.65 c -151.473,-16.309 -220.217,-79.232 -220.217,-193.421 0,-106.027 65.248,-187.581 203.897,-187.581 94.384,0 150.309,30.292 199.245,90.885 v -73.412 h 160.791 v 385.664 c 0,161.955 -94.375,219.046 -265.652,219.046 m 672.471,10e-4 c 152.641,0 230.708,-67.576 230.708,-260.991 v -343.719 h -175.945 v 335.565 c 0,78.059 -33.788,113.013 -107.192,113.013 -66.416,0 -106.025,-34.954 -106.025,-113.013 v -335.565 h -175.936 v 587.233 h 165.449 v -67.584 c 24.468,45.447 74.564,85.061 168.941,85.061 m 601.849,-236.523 c 149.137,-19.81 223.704,-66.416 223.704,-188.752 0,-123.512 -87.386,-196.911 -272.647,-196.911 -201.567,0 -272.644,80.39 -276.131,198.077 h 173.597 c 4.67,-43.113 34.956,-64.089 102.534,-64.089 68.744,0 96.71,16.318 96.71,48.937 0,30.295 -23.299,44.272 -83.892,52.429 l -61.757,8.161 c -129.327,17.476 -203.895,67.572 -203.895,184.092 0,111.854 82.725,194.578 256.338,194.578 160.78,0 247.005,-64.082 255.157,-191.085 h -171.279 c -5.823,33.785 -24.467,54.764 -83.878,54.764 -58.264,0 -80.402,-19.81 -80.402,-45.447 0,-25.628 13.987,-39.611 64.08,-46.606 l 61.761,-8.148 m 664.131,-139.824 c 0,-64.08 -60.601,-111.851 -153.807,-111.851 -45.438,0 -72.243,20.975 -72.243,60.592 0,30.292 18.644,55.926 78.063,64.077 l 101.38,13.986 c 17.468,2.325 36.113,5.824 46.607,9.32 z m -97.882,376.346 c -173.6,0 -257.495,-66.416 -264.482,-191.085 h 171.276 c 2.334,32.628 20.97,57.087 93.206,57.087 64.085,0 94.38,-20.969 94.38,-52.429 0,-27.961 -17.476,-38.446 -60.59,-43.104 l -111.851,-11.65 c -151.464,-16.317 -220.216,-79.235 -220.216,-193.421 0,-106.027 65.25,-187.581 203.906,-187.581 94.371,0 150.305,30.292 199.235,90.885 v -73.412 h 160.791 v 385.664 c 0,161.946 -94.378,219.046 -265.655,219.046" /></g></svg>